<svg width="35" height="33" viewBox="0 0 35 33" fill="none" xmlns="http://www.w3.org/2000/svg">
<path d="M12.0446 31H8.69641C4.99808 31 2 28.0019 2 24.3036V13.7695C2 11.4279 3.22312 9.25634 5.22564 8.04269L13.5962 2.96966C15.7295 1.67678 18.4044 1.67678 20.5377 2.96966L28.9082 8.04269C30.9107 9.25634 32.1338 11.4279 32.1338 13.7695V24.3036C32.1338 28.0019 29.1357 31 25.4374 31H22.0892M12.0446 31V24.3036C12.0446 21.5298 14.2931 19.2813 17.0669 19.2813C19.8407 19.2813 22.0892 21.5298 22.0892 24.3036V31M12.0446 31H22.0892" stroke="#DE717C" stroke-width="4" stroke-linecap="round" stroke-linejoin="round"/>
</svg>
