<svg width="100" height="100" viewBox="0 0 100 100" fill="none" xmlns="http://www.w3.org/2000/svg">
<g clip-path="url(#clip0_16_148)">
<g filter="url(#filter0_d_16_148)">
<path fill-rule="evenodd" clip-rule="evenodd" d="M19.1832 12L50.5114 23.0229L81.8397 12L88.8015 20.1221L50.5114 30.5649L12.2213 20.1221L19.1832 12ZM50.5114 31.7252L11.6412 21.2824L7 27.084L50.5114 38.687L94.0229 27.084L89.3817 21.2824L50.5114 31.7252ZM50.5115 88L41.2854 81.6571L41.8568 71.2771L50.5114 73.4962V71.1756L41.9827 68.9888L42.6125 57.5472L50.5115 59.5726V57.252L42.7385 55.2589L43.1794 47.2498L50.5115 49.1298V46.8092L43.3053 44.9615L43.6497 38.7046L50.5115 40.4275L57.3697 38.7055L57.7142 44.9624L50.5115 46.8092V49.1298L57.8401 47.2507L58.281 55.2598L50.5115 57.2519V59.5726L58.407 57.5481L59.0368 68.9896L50.5115 71.1756V73.4962L59.1627 71.278L59.7342 81.6595L50.5115 88Z" fill="url(#paint0_linear_16_148)"/>
</g>
</g>
<defs>
<filter id="filter0_d_16_148" x="7" y="12" width="95.0229" height="84" filterUnits="userSpaceOnUse" color-interpolation-filters="sRGB">
<feFlood flood-opacity="0" result="BackgroundImageFix"/>
<feColorMatrix in="SourceAlpha" type="matrix" values="0 0 0 0 0 0 0 0 0 0 0 0 0 0 0 0 0 0 127 0" result="hardAlpha"/>
<feOffset dx="4" dy="4"/>
<feGaussianBlur stdDeviation="2"/>
<feComposite in2="hardAlpha" operator="out"/>
<feColorMatrix type="matrix" values="0 0 0 0 0 0 0 0 0 0 0 0 0 0 0 0 0 0 0.25 0"/>
<feBlend mode="normal" in2="BackgroundImageFix" result="effect1_dropShadow_16_148"/>
<feBlend mode="normal" in="SourceGraphic" in2="effect1_dropShadow_16_148" result="shape"/>
</filter>
<linearGradient id="paint0_linear_16_148" x1="50.5114" y1="12" x2="50.5114" y2="88" gradientUnits="userSpaceOnUse">
<stop stop-color="#97BBDD"/>
<stop offset="0.505208" stop-color="#F287B6"/>
<stop offset="0.78125" stop-color="#F7AB17"/>
<stop offset="1" stop-color="#FDE800"/>
</linearGradient>
<clipPath id="clip0_16_148">
<rect width="100" height="100" fill="white"/>
</clipPath>
</defs>
</svg>
