<svg width="37" height="37" viewBox="0 0 37 37" fill="none" xmlns="http://www.w3.org/2000/svg">
<g id="&#240;&#159;&#166;&#134; icon &#34;profile circled&#34;">
<path id="Vector" d="M18.5 2C9.3873 2 2 9.3873 2 18.5C2 27.6126 9.3873 35 18.5 35C27.6126 35 35 27.6126 35 18.5C35 9.3873 27.6126 2 18.5 2Z" stroke="#F6D8DF" stroke-width="4" stroke-linecap="round" stroke-linejoin="round"/>
<path id="Vector_2" d="M5.74719 28.9704C5.74719 28.9704 9.42508 24.275 18.5 24.275C27.575 24.275 31.2531 28.9704 31.2531 28.9704" stroke="#F6D8DF" stroke-width="4" stroke-linecap="round" stroke-linejoin="round"/>
<path id="Vector_3" d="M18.5 18.5C21.2339 18.5 23.45 16.2838 23.45 13.55C23.45 10.8162 21.2339 8.59996 18.5 8.59996C15.7662 8.59996 13.55 10.8162 13.55 13.55C13.55 16.2838 15.7662 18.5 18.5 18.5Z" stroke="#F6D8DF" stroke-width="4" stroke-linecap="round" stroke-linejoin="round"/>
</g>
</svg>
